<?xml version="1.0" standalone="no"?>
<!DOCTYPE svg PUBLIC "-//W3C//DTD SVG 20010904//EN"
 "http://www.w3.org/TR/2001/REC-SVG-20010904/DTD/svg10.dtd">
<svg version="1.0" xmlns="http://www.w3.org/2000/svg"
 width="245.000000pt" height="183.000000pt" viewBox="0 0 245.000000 183.000000"
 preserveAspectRatio="xMidYMid meet">

<g transform="translate(0.000000,183.000000) scale(0.100000,-0.100000)"
fill="#000000" stroke="none">
<path d="M930 1377 c0 -107 -10 -122 -65 -102 -25 9 -80 14 -149 15 l-108 0
-34 -34 c-30 -30 -34 -40 -34 -89 0 -46 4 -59 21 -71 20 -13 21 -22 17 -88 -5
-82 -18 -112 -78 -183 -58 -71 -89 -142 -101 -235 -14 -106 -9 -228 11 -241
10 -7 269 -9 745 -6 793 4 785 3 817 59 18 31 25 451 8 516 -6 26 -28 80 -47
122 -29 60 -38 92 -43 159 -9 114 -18 121 -150 121 -119 0 -137 -11 -148 -84
-7 -46 -8 -47 -23 -30 -44 50 -59 93 -59 174 l0 80 -290 0 -290 0 0 -83z m535
-2 l0 -50 -225 -3 c-124 -1 -235 0 -247 3 -20 5 -23 12 -23 49 0 23 3 46 7 50
4 3 115 5 247 4 l241 -3 0 -50z m385 -105 c6 -8 9 -28 8 -45 l-3 -30 -115 0
c-125 0 -130 3 -116 60 8 30 23 34 129 32 66 -2 90 -6 97 -17z m-992 -23 c13
-9 -8 -46 -56 -99 -25 -27 -30 -28 -123 -28 -112 0 -125 8 -116 68 11 65 34
75 167 70 63 -2 121 -7 128 -11z m558 -2 c4 -8 -14 -42 -42 -80 l-48 -65 -225
0 c-124 0 -232 4 -239 8 -10 7 -2 24 32 69 25 34 53 66 63 72 11 6 102 11 236
11 183 0 219 -2 223 -15z m158 -104 l67 -89 -3 -331 c-3 -282 -5 -333 -18
-341 -23 -14 -233 -13 -248 2 -9 9 -12 99 -12 344 l0 332 37 49 c65 86 96 123
103 123 3 0 37 -40 74 -89z m296 -33 c59 -96 111 -304 81 -322 -6 -4 -29 7
-51 24 -57 46 -95 48 -150 11 -32 -21 -47 -26 -52 -18 -4 7 -8 66 -8 132 0
101 -3 127 -20 160 -11 22 -20 41 -20 42 0 2 45 3 100 3 l100 0 20 -32z
m-1132 -50 c8 -8 12 -57 12 -153 0 -146 -5 -165 -43 -165 -10 0 -35 -16 -54
-35 -34 -34 -35 -38 -30 -90 l6 -55 -45 0 c-31 0 -46 -5 -51 -15 -3 -9 -2 -19
2 -23 3 -4 52 -9 108 -12 l102 -5 0 -65 0 -65 -140 -3 c-196 -4 -185 -9 -185
91 0 101 15 199 39 252 10 22 43 71 74 109 57 70 77 121 77 194 0 21 3 42 7
45 11 12 108 8 121 -5z m557 -353 l0 -330 -230 -2 c-134 -2 -236 1 -245 7 -23
14 -23 636 0 650 9 6 111 9 245 7 l230 -2 0 -330z m608 49 l57 -46 0 -116 c0
-130 -11 -187 -40 -202 -27 -14 -203 -13 -218 2 -8 8 -12 59 -12 162 l0 150
47 48 c62 63 88 64 166 2z m-1162 -81 c12 -33 0 -104 -18 -110 -17 -6 -63 42
-63 65 0 19 45 72 62 72 4 0 13 -12 19 -27z"/>
</g>
</svg>
