<svg width="223" height="124" viewBox="0 0 223 124" fill="none" xmlns="http://www.w3.org/2000/svg">
<path d="M92.0391 1.23922C87.1172 2.47137 81.8672 5.5928 78.5859 9.28922C76.7813 11.3428 75.3047 13.3142 75.3047 13.6428C75.3047 14.0535 72.5977 15.9428 69.3984 17.9964C63.082 21.9392 53.4023 31.3035 49.4648 37.2999C48.0703 39.4356 46.3477 40.9142 45.0352 41.2428C30.6797 44.2821 13.7813 51.2642 7.54688 56.6856C3.85547 59.8892 0.65625 65.7214 0.65625 69.2535C0.738281 76.1535 7.46484 83.2178 19.2773 88.8856C24.9375 91.6785 27.2344 93.1571 28.1367 94.9642C30.1055 98.7428 37.5703 105.889 43.2305 109.257C57.9141 118.211 78.1758 122.729 106.969 123.468C141.258 124.371 167.344 119.196 183.176 108.354C186.703 105.971 193.348 98.8249 195.152 95.5392C196.711 92.5821 198.023 91.5964 204.832 88.2285C235.02 73.4428 224.93 52.8249 182.191 42.1464C178.664 41.3249 177.434 40.4214 175.137 37.3821C169.148 29.5785 157.828 22.9249 146.59 20.5428C142.734 19.7214 140.273 18.8178 139.781 17.9142C137.156 13.1499 129.691 8.54994 122.883 7.48208C120.832 7.23565 117.141 5.92137 114.68 4.60708C107.543 0.992795 98.7656 -0.32149 92.0391 1.23922ZM107.707 9.28922C112.875 11.0142 117.879 16.1892 120.012 21.9392C122.473 28.5107 122.227 41.5714 119.684 49.3749C117.633 55.3714 113.531 64.0785 110.66 68.2678C109.676 69.5821 108.938 71.1428 108.938 71.7178C108.938 73.0321 111.234 75.2499 112.629 75.2499C117.059 75.2499 126.328 56.0285 128.625 42.3106C129.855 34.8357 128.543 23.5821 125.754 16.5999C125.18 15.2035 125.262 15.2035 127.477 16.3535C131.25 18.3249 134.121 21.9392 135.598 26.6214C136.746 30.1535 136.992 32.8642 136.582 40.9964C136.172 50.3607 135.105 56.0285 131.578 67.2821C130.43 70.9785 130.43 71.3071 131.906 72.7857C134.367 75.2499 136.582 74.0178 138.469 69.0071C139.371 66.5428 140.109 64.2428 140.109 63.8321C140.109 63.5035 140.684 61.3678 141.34 58.9856C142.242 56.0285 142.98 54.8785 143.719 55.2071C145.688 55.9464 149.215 61.7785 150.773 66.7892C152.168 71.3892 152.332 71.5535 154.957 71.5535H157.746V67.4464C157.664 60.7928 151.512 50.6892 145.77 47.7321C143.719 46.6642 143.473 46.1714 143.965 43.7892C144.211 42.3928 144.539 40.9964 144.703 40.8321C145.523 39.9285 151.594 42.6392 154.629 45.2678C159.141 49.1285 161.355 52.8249 164.309 61.6964C166.523 68.1856 167.098 69.0892 168.902 69.3356C172.348 69.7464 173.332 67.6928 172.184 62.5999C168.984 48.3071 159.305 37.0535 147.82 34.1785C144.457 33.3571 143.473 32.0428 143.391 28.2642C143.391 27.0321 143.801 27.0321 147.574 28.0178C162.422 31.9607 173.414 43.2964 178.992 60.3821C180.879 66.1321 182.684 68.0214 185.063 66.5428C185.801 66.0499 186.539 64.6535 186.703 63.5035L186.949 61.2856L190.23 62.9285C191.953 63.8321 193.43 64.9821 193.43 65.3928C193.43 69.1714 172.922 74.4285 147.902 76.9749C135.023 78.3714 91.6289 78.3714 79.4063 76.9749C56.5195 74.5107 39.375 70.6499 34.9453 67.1178C33.0586 65.4749 33.0586 65.4749 34.6992 64.2428C36.9961 62.4356 38.2266 62.5999 38.5547 64.7356C38.8008 66.8714 41.918 67.6928 43.7227 66.2142C44.3789 65.7214 45.4453 63.2571 46.1016 60.8749C47.9883 54.5499 54.1406 42.7214 58.4063 37.2999C62.6719 31.9606 70.6289 25.0607 75.3867 22.6785C80.5547 19.9678 88.1836 18.3249 92.3672 18.9821C98.9297 19.9678 100.242 21.2821 95.5664 22.1857C90.2344 23.1714 79.8164 28.9214 74.4844 33.8499C65.2969 42.3928 57.0117 57.5892 56.9297 66.2142C56.8477 69.4999 57.0938 69.9106 58.7344 70.1571C61.5234 70.5678 62.7539 69.0892 64.2305 63.9142C69.5625 45.5964 83.3438 31.7964 99.668 28.4285C105.82 27.1142 106.477 27.5249 106.477 32.7821V37.2178L102.457 37.6285C91.6289 38.6964 81.293 49.1285 76.125 64.3249C73.9922 70.7321 74.4844 72.7857 78.1758 72.7857C80.3086 72.7857 81.457 71.6356 82.1953 68.5142C83.1797 64.1607 87.8555 55.4535 91.1367 51.7571C95.5664 46.7464 104.016 42.8035 104.016 45.7607C104.016 47.3214 96.7149 61.4499 93.6797 65.6392C90.4805 70.0749 90.0703 73.1964 92.5313 74.0178C95.8945 75.0856 97.4531 73.6071 103.77 63.0928C112.219 48.8821 115.582 34.9178 112.711 26.1285C110.168 18.5714 102.047 12.9857 92.2031 12.0821L86.3789 11.5071L89.6602 9.78208C93.7617 7.48208 101.965 7.3178 107.707 9.28922ZM41.8359 51.8392C41.4258 52.5785 38.3906 54.5499 35.0273 56.1928C30.3516 58.5749 28.6289 59.8892 27.3164 62.2714C25.8398 65.1464 25.7578 65.3928 27.0703 68.1856C30.5156 75.3321 45.2813 80.2606 73.2539 83.6285C87.6094 85.3535 143.309 85.1071 156.926 83.2178C185.473 79.3571 198.598 74.4285 200.402 66.9535C201.551 62.1892 196.957 57.5071 187.934 54.3035C184.16 52.9892 182.027 51.0999 183.094 50.0321C183.75 49.3749 198.598 54.7142 203.602 57.4249C210.902 61.2856 214.758 65.2285 214.758 68.9249C214.758 80.0964 187.277 90.3642 145.031 95.1285C132.645 96.4428 90.1524 96.4428 77.7656 95.1285C44.1328 91.3499 20.8359 84.3678 11.1563 75.1678C2.95312 67.3642 12.0586 58.2464 34.6992 51.3464C42 49.2106 43.3125 49.2928 41.8359 51.8392ZM186.047 95.7035C186.047 97.2642 178.09 103.343 172.512 106.054C156.352 113.939 137.238 116.814 106.969 116.075C79.8164 115.418 62.4258 111.804 48.4805 103.836C42.9023 100.714 37.0781 95.7856 38.8828 95.7856C39.293 95.7856 44.0508 96.6892 49.4648 97.8392C87.5274 105.807 148.641 105.068 180.715 96.2785C186.047 94.7999 186.047 94.7999 186.047 95.7035Z" fill="#131212"/>
</svg>
