<?xml version="1.0" standalone="no"?><svg xmlns="http://www.w3.org/2000/svg" viewBox="0 0 1440 320"><path fill="#8bd3dd" fill-opacity="1" d="M0,128L34.3,112C68.6,96,137,64,206,80C274.3,96,343,160,411,186.7C480,213,549,203,617,176C685.7,149,754,107,823,106.7C891.4,107,960,149,1029,160C1097.1,171,1166,149,1234,144C1302.9,139,1371,149,1406,154.7L1440,160L1440,320L1405.7,320C1371.4,320,1303,320,1234,320C1165.7,320,1097,320,1029,320C960,320,891,320,823,320C754.3,320,686,320,617,320C548.6,320,480,320,411,320C342.9,320,274,320,206,320C137.1,320,69,320,34,320L0,320Z"></path></svg>